<?xml version="1.0" standalone="no"?>
<!DOCTYPE svg PUBLIC "-//W3C//DTD SVG 20010904//EN"
 "http://www.w3.org/TR/2001/REC-SVG-20010904/DTD/svg10.dtd">
<svg version="1.0" xmlns="http://www.w3.org/2000/svg"
 width="500.000000pt" height="500.000000pt" viewBox="0 0 500.000000 500.000000"
 preserveAspectRatio="xMidYMid meet">
<metadata>
Created by potrace 1.11, written by Peter Selinger 2001-2013
</metadata>
<g transform="translate(0.000000,500.000000) scale(0.100000,-0.100000)"
fill="#000000" stroke="none">
<path d="M2530 4256 c0 -19 5 -26 19 -26 10 0 22 7 25 16 8 20 8 19 -21 28
-20 6 -23 4 -23 -18z"/>
<path d="M1934 4255 c-15 -10 -16 -16 -7 -26 14 -15 43 -5 43 15 0 22 -15 27
-36 11z"/>
<path d="M1995 4136 c-20 -14 -19 -16 10 -76 27 -55 32 -59 48 -48 17 13 16
17 -10 76 -27 59 -30 61 -48 48z"/>
<path d="M2527 4133 c-4 -3 -7 -35 -7 -70 0 -55 2 -63 19 -63 14 0 20 10 25
38 11 71 8 102 -12 102 -10 0 -22 -3 -25 -7z"/>
<path d="M2068 3970 c-15 -9 -15 -13 0 -50 17 -41 27 -46 50 -31 11 7 10 16
-7 50 -12 22 -22 41 -24 41 -1 0 -10 -5 -19 -10z"/>
<path d="M4630 3966 c-19 -7 -125 -49 -235 -93 -418 -168 -863 -337 -1330
-506 -182 -66 -412 -137 -444 -137 -13 0 -29 25 -55 88 -51 119 -78 156 -132
188 -35 21 -63 28 -118 32 -64 3 -77 1 -126 -25 -94 -50 -147 -144 -138 -243
5 -46 83 -220 99 -220 5 0 9 -14 9 -30 0 -17 -3 -29 -7 -28 -5 2 -46 -27 -93
-63 -89 -69 -405 -284 -475 -324 l-41 -22 1 57 c1 56 1 57 -25 55 -15 -1 -37
-9 -51 -18 -57 -37 -138 -50 -264 -43 -66 3 -137 9 -157 12 l-36 6 -7 -46 c-9
-56 1 -184 21 -280 9 -44 11 -73 5 -79 -21 -21 -51 156 -51 297 l0 99 -77 -7
c-43 -4 -118 -21 -167 -37 -306 -102 -527 -331 -622 -644 -25 -81 -28 -105
-28 -245 0 -113 4 -173 17 -222 82 -330 309 -583 616 -687 64 -22 90 -25 163
-23 l87 3 3 82 c2 65 6 82 18 82 12 0 16 -17 18 -82 l3 -83 77 0 c43 0 83 -5
88 -10 31 -31 304 81 437 179 38 28 78 53 89 57 22 7 27 1 741 -713 l291 -293
111 0 110 0 520 520 520 520 -70 70 -71 71 148 146 c81 81 148 151 148 155 0
4 -44 8 -97 8 l-98 0 -102 -102 -103 -103 -103 103 c-96 96 -105 102 -142 101
-22 0 -188 2 -369 4 -317 5 -348 3 -388 -25 -14 -10 -20 -9 -36 5 -20 18 -128
25 -117 8 3 -5 -8 -3 -24 5 -20 10 -53 14 -102 12 l-73 -3 90 -55 c49 -30 96
-55 105 -55 21 -1 49 -23 49 -39 0 -14 -43 -54 -79 -74 -20 -12 -26 -11 -39 2
-11 11 -12 19 -5 28 17 20 -252 188 -300 188 -39 0 -68 -24 -41 -34 8 -3 25
-6 37 -6 14 0 17 -3 10 -8 -7 -4 48 -44 140 -102 83 -52 156 -98 161 -102 6
-4 4 -14 -8 -26 -17 -20 -16 -20 96 -21 l113 -1 -48 32 -48 31 29 29 29 30 52
-32 52 -33 -27 -28 -28 -29 41 0 c35 0 42 4 46 23 4 22 4 22 6 0 1 -17 9 -23
34 -26 l32 -4 -32 -1 c-26 -2 -32 -7 -36 -30 l-4 -27 -2 28 -1 27 -197 -1
c-109 -1 -188 -4 -175 -7 21 -7 17 -12 -53 -82 -41 -41 -75 -71 -75 -66 0 5
-9 1 -20 -9 -19 -17 -22 -17 -37 -2 -13 12 -14 19 -5 30 10 11 2 21 -43 50
l-55 36 0 -56 c0 -58 20 -96 44 -87 7 3 19 -2 26 -11 11 -13 11 -19 -3 -32
-15 -15 -18 -15 -36 1 -19 18 -20 17 -30 -15 l-9 -34 -1 31 c-1 16 -6 35 -12
41 -8 8 -8 13 0 17 6 4 11 38 11 80 0 68 -2 73 -27 87 l-26 14 29 6 c18 4 1 7
-47 8 -65 1 -79 -2 -95 -20 -19 -21 -19 -21 -35 -1 -9 11 -31 22 -50 25 -32 4
-31 4 8 5 23 1 45 7 48 12 5 8 11 8 20 0 8 -6 29 -10 47 -8 33 3 32 3 -40 47
-40 24 -75 48 -78 53 -4 6 35 52 86 103 l93 93 -72 4 -72 3 -67 -67 c-36 -38
-70 -68 -74 -68 -4 0 -44 23 -88 51 l-81 52 22 23 c21 23 22 24 3 25 -53 4
-160 -4 -165 -13 -4 -7 -8 -6 -10 1 -3 7 -13 12 -24 12 -199 -4 -551 11 -563
24 -3 3 11 5 31 5 54 0 54 18 0 23 l-48 3 55 4 55 3 -60 7 c-33 4 -100 9 -150
10 -114 3 -71 17 60 19 72 2 85 4 65 12 -14 6 -54 14 -90 19 -36 5 -92 15
-125 23 l-60 15 89 -5 c66 -5 87 -3 82 5 -4 7 -19 12 -34 13 l-27 1 25 8 c20
6 14 8 -27 9 -42 1 -51 4 -47 16 5 12 -4 15 -47 17 l-54 1 65 7 c36 4 53 7 38
8 -36 2 -36 20 -1 24 40 5 42 28 1 28 -25 0 -29 3 -18 10 12 8 10 10 -10 10
-20 0 -22 2 -10 11 38 26 -64 -2 -179 -50 -118 -49 -141 -55 -127 -32 7 11
110 79 191 126 28 15 52 31 55 34 3 4 21 15 42 25 20 11 47 28 60 38 23 17 22
18 -64 18 -52 0 -90 4 -94 11 -4 8 19 9 82 3 49 -4 97 -7 106 -6 15 1 373 219
618 376 139 90 176 112 164 96 -7 -8 -17 -33 -24 -56 -10 -34 -22 -46 -79 -81
-163 -99 -377 -236 -392 -251 -10 -10 -20 -27 -24 -39 -6 -21 -3 -23 29 -23
20 0 36 5 36 11 0 8 82 10 283 8 155 -2 266 -1 247 2 -19 4 12 5 70 3 70 -3
98 -1 85 5 -18 9 -18 10 -2 10 10 1 15 6 12 11 -4 6 -12 7 -18 4 -7 -4 -8 -3
-4 2 5 5 16 9 25 9 32 0 132 57 160 91 36 43 65 133 60 187 l-3 41 65 32 c63
31 65 31 76 13 5 -11 12 -17 15 -14 5 4 59 -95 59 -107 0 -2 -15 -3 -32 -3
-27 0 -34 -4 -36 -23 -2 -13 1 -29 7 -36 8 -9 -16 -39 -94 -116 -58 -58 -105
-108 -105 -112 0 -4 124 -7 275 -6 l274 1 -38 42 c-46 50 -58 71 -78 137 -48
162 17 305 124 276 42 -11 67 -57 58 -104 -8 -48 -21 -50 -29 -5 -4 27 -16 48
-37 65 -37 32 -50 32 -75 5 -15 -17 -19 -35 -18 -92 2 -60 7 -81 40 -146 60
-117 145 -168 216 -130 46 25 74 146 43 192 -8 12 -15 38 -16 57 -2 19 -12 45
-23 58 l-20 23 94 94 c51 52 108 99 124 105 17 7 38 16 47 20 19 10 27 2 74
-68 34 -51 44 -59 56 -41 19 30 10 81 -22 116 -30 35 -36 73 -12 80 6 2 21
-14 33 -36 25 -43 76 -86 85 -72 3 6 3 28 -1 50 -5 33 -11 41 -27 41 -28 0
-77 48 -77 76 0 26 35 55 57 47 8 -3 25 -22 38 -41 38 -56 42 -15 5 57 -17 34
-29 65 -26 69 3 5 1 14 -4 22 -7 11 7 23 57 51 l66 37 43 -33 c59 -45 105 -59
178 -52 72 6 108 23 158 74 52 53 70 102 67 180 -2 63 -2 65 30 84 32 19 71
18 71 -2 0 -5 7 -9 16 -9 12 0 15 6 11 23 -9 32 0 42 79 85 l71 39 27 -20 c32
-23 40 -18 40 25 1 31 7 36 136 106 214 116 499 280 573 329 74 49 82 69 41
102 -31 24 -45 25 -94 7z m65 -45 c-7 -13 -252 -157 -439 -260 l-149 -82 -46
11 c-45 12 -49 11 -305 -88 -241 -93 -260 -99 -285 -86 -14 8 -37 14 -51 14
-21 1 -22 2 -8 10 9 6 117 48 240 95 315 119 604 232 868 339 127 52 189 68
175 47z m-2327 -436 c28 -9 54 -20 57 -25 4 -6 -3 -6 -20 0 -15 6 -35 10 -46
10 -19 0 -19 -1 3 -40 18 -31 29 -40 51 -40 53 0 82 -24 114 -98 l31 -70 -46
20 c-64 29 -138 27 -191 -3 -48 -27 -98 -96 -107 -148 -3 -20 -6 -39 -7 -43
-1 -4 -20 26 -41 66 -39 72 -39 75 -26 115 7 23 17 41 22 41 4 0 8 9 8 21 0
11 -4 18 -8 15 -4 -2 -9 5 -9 16 -3 41 -21 41 -42 2 -19 -36 -21 -37 -15 -9
19 86 66 144 141 171 50 17 69 17 131 -1z m1045 -111 c13 -4 13 -11 5 -37 -14
-40 -12 -39 -32 -31 -18 7 -21 27 -6 55 12 21 12 21 33 13z m-237 -56 c-37
-59 4 -39 -403 -194 -51 -19 -97 -33 -101 -30 -10 6 -47 85 -41 89 2 1 45 13
94 25 50 12 91 27 93 32 2 5 9 7 15 5 8 -3 342 108 374 124 2 0 -12 -23 -31
-51z m153 26 c12 -27 7 -44 -13 -44 -15 0 -39 47 -31 61 11 17 32 9 44 -17z
m232 -69 c22 -48 24 -123 5 -168 -17 -39 -71 -92 -109 -106 -84 -32 -191 3
-238 77 -38 59 -41 104 -4 49 75 -110 247 -99 309 21 20 39 21 118 1 156 -19
36 -19 42 2 25 9 -8 24 -32 34 -54z m-61 17 c0 -10 -13 -22 -30 -29 -26 -10
-32 -9 -40 8 -9 16 -6 21 22 32 37 16 48 13 48 -11z m-241 -3 c30 -11 41 -32
22 -43 -5 -3 -22 -1 -39 5 -23 8 -29 15 -25 30 3 10 6 19 8 19 1 0 16 -5 34
-11z m141 -14 c19 -22 15 -67 -6 -82 -48 -35 -111 17 -86 71 9 21 19 26 46 26
18 0 39 -7 46 -15z m101 -77 c-1 -5 -1 -16 -1 -25 0 -13 -3 -14 -12 -5 -7 7
-22 12 -35 12 -24 0 -27 7 -17 34 5 13 10 13 36 3 16 -7 29 -15 29 -19z m-204
-3 c3 -9 -45 -45 -60 -45 -3 0 -7 9 -10 21 -4 14 1 23 16 29 27 11 49 9 54 -5z
m131 -50 c16 -34 15 -42 -3 -49 -21 -8 -53 53 -33 65 20 13 24 11 36 -16z
m-78 3 c0 -33 -14 -58 -31 -58 -20 0 -23 10 -13 48 7 23 44 32 44 10z m-510
-107 c13 -25 4 -48 -21 -56 -38 -12 -65 35 -37 63 18 18 46 14 58 -7z m-622
-116 c12 -25 22 -47 22 -49 0 -5 -71 -51 -160 -106 -41 -25 -122 -76 -180
-113 -105 -66 -105 -66 -162 -60 l-57 6 177 121 c186 127 289 203 311 230 20
24 25 21 49 -29z m832 -68 c0 -6 -16 4 -35 23 -19 18 -32 37 -28 43 6 10 63
-48 63 -66z m-825 -142 c0 -26 -3 -30 -29 -30 -36 0 -56 26 -36 50 8 9 24 15
39 13 22 -2 26 -8 26 -33z m-689 -50 c1 -8 -1 -17 -5 -19 -4 -3 -7 6 -7 19 0
25 8 25 12 0z m828 -167 c-49 -49 -100 -94 -112 -99 -13 -5 -26 -18 -29 -29
-4 -17 -10 -12 -31 27 -14 27 -27 62 -29 79 -3 34 -4 33 157 108 71 32 76 33
104 19 l29 -15 -89 -90z m-704 16 c13 -34 13 -41 -5 -48 -21 -8 -53 53 -33 65
21 14 28 11 38 -17z m100 22 c0 -25 -26 -66 -41 -66 -22 0 -23 8 -9 44 6 16
17 26 30 26 11 0 20 -2 20 -4z m119 -70 c79 -127 8 -290 -135 -312 -79 -12
-167 34 -204 106 -28 55 -26 82 3 39 28 -42 76 -75 122 -83 73 -14 163 33 191
101 18 43 18 117 -1 153 -21 41 -1 38 24 -4z m-51 -8 c3 -13 -35 -38 -58 -38
-20 0 -9 37 13 48 27 13 41 10 45 -10z m-230 -4 c28 -8 30 -44 3 -44 -33 0
-51 11 -51 31 0 20 10 23 48 13z m132 -14 c24 -24 25 -38 4 -68 -29 -42 -104
-17 -104 35 0 20 38 53 60 53 11 0 29 -9 40 -20z m103 -69 c4 -4 5 -15 2 -23
-5 -13 -13 -14 -37 -7 -38 11 -40 12 -32 33 5 13 13 16 33 11 14 -4 30 -10 34
-14z m-209 -7 c7 -19 8 -17 -21 -33 -29 -15 -40 -14 -47 4 -3 9 5 20 22 29 35
19 39 19 46 0z m143 -96 c-19 -12 -24 -10 -42 19 -17 25 -17 27 1 40 16 12 20
10 35 -19 13 -24 14 -35 6 -40z m-94 56 c13 -4 13 -11 5 -37 -14 -40 -12 -39
-32 -31 -19 7 -20 13 -6 48 10 28 11 29 33 20z m-1270 -181 c-7 -2 -19 -2 -25
0 -7 3 -2 5 12 5 14 0 19 -2 13 -5z m910 -50 c-7 -2 -19 -2 -25 0 -7 3 -2 5
12 5 14 0 19 -2 13 -5z m97 -23 c51 -7 48 -8 -35 -7 -49 0 -101 4 -115 8 -35
10 78 9 150 -1z m-897 -51 c7 -1 -6 -5 -28 -9 -25 -5 -44 -4 -50 2 -7 8 -5 9
7 5 10 -3 20 -2 24 4 3 6 13 8 21 5 8 -3 20 -7 26 -7z m-156 -45 c-3 -3 -12
-4 -19 -1 -8 3 -5 6 6 6 11 1 17 -2 13 -5z m88 -4 c-3 -5 -12 -7 -20 -3 -21 7
-19 13 6 13 11 0 18 -4 14 -10z m138 -7 c-7 -2 -19 -2 -25 0 -7 3 -2 5 12 5
14 0 19 -2 13 -5z m-91 -30 c-6 -2 -10 -9 -6 -14 8 -14 -19 -10 -40 6 -19 14
-17 15 20 14 21 0 33 -3 26 -6z m88 -199 c0 -2 -14 -4 -31 -4 -16 0 -28 4 -25
9 5 8 56 3 56 -5z m207 -160 c-3 -3 -12 -4 -19 -1 -8 3 -5 6 6 6 11 1 17 -2
13 -5z m700 -116 c-3 -8 -6 -5 -6 6 -1 11 2 17 5 13 3 -3 4 -12 1 -19z m2010
-125 c-2 -27 -3 -5 -3 47 0 52 1 74 3 48 2 -27 2 -69 0 -95z m-807 101 c11
-12 10 -18 -3 -32 -16 -15 -18 -15 -34 0 -13 14 -14 20 -3 32 7 9 16 16 20 16
4 0 13 -7 20 -16z m137 -121 c-2 -27 -3 -5 -3 47 0 52 1 74 3 48 2 -27 2 -69
0 -95z m513 -50 c0 -20 -27 -28 -45 -13 -14 11 -14 15 1 31 13 14 20 16 31 8
7 -6 13 -18 13 -26z m54 -25 c-13 -14 -20 -15 -31 -7 -16 14 -17 31 -1 47 9 9
16 8 30 -5 17 -15 17 -17 2 -35z m-1474 16 c11 -12 10 -18 -3 -32 -16 -15 -18
-15 -34 0 -13 14 -14 20 -3 32 7 9 16 16 20 16 4 0 13 -7 20 -16z m1352 -44
c11 -17 24 -20 77 -20 44 0 70 5 81 15 15 14 18 14 30 0 18 -21 30 -19 31 8
l2 22 4 -22 c2 -13 12 -24 21 -24 15 -1 15 -2 0 -6 -24 -6 -23 -21 4 -43 19
-15 20 -20 9 -34 -7 -9 -17 -13 -22 -10 -14 8 -11 -210 3 -224 9 -9 9 -15 0
-24 -7 -7 -12 -28 -13 -47 0 -20 -3 -30 -6 -23 -4 10 -12 7 -32 -11 l-26 -26
-185 119 c-102 64 -187 117 -190 116 -3 0 -17 8 -32 20 l-27 21 28 27 c15 14
33 26 41 26 7 0 22 8 32 17 17 15 20 15 35 0 14 -13 14 -19 3 -32 -8 -9 -9
-19 -4 -24 22 -20 348 -220 353 -216 2 3 -4 14 -14 25 -17 19 -17 21 -1 39 14
15 16 40 15 160 -1 109 -4 141 -15 141 -7 0 -16 -5 -19 -10 -5 -8 -11 -8 -20
0 -7 6 -62 10 -135 9 -67 0 -124 2 -128 5 -3 3 6 6 19 6 13 0 30 9 37 20 7 11
17 20 22 20 5 0 15 -9 22 -20z m-1499 -27 c-18 -2 -48 -2 -65 0 -18 2 -4 4 32
4 36 0 50 -2 33 -4z m1965 0 c-27 -2 -69 -2 -95 0 -27 2 -5 3 47 3 52 0 74 -1
48 -3z m-1079 -30 c22 -18 21 -18 -82 -121 l-104 -103 -52 32 -52 33 88 88
c85 86 89 88 134 88 30 0 55 -6 68 -17z m551 -17 c0 -7 -5 -17 -12 -24 -9 -9
-16 -8 -30 5 -17 15 -17 17 -2 35 13 14 20 15 31 7 7 -6 13 -17 13 -23z
m-1160 -12 c11 -12 10 -18 -3 -32 -16 -15 -18 -15 -34 0 -13 14 -14 20 -3 32
7 9 16 16 20 16 4 0 13 -7 20 -16z m1549 -81 c-6 -7 -18 -13 -26 -13 -20 0
-28 27 -13 45 11 14 15 14 31 -1 14 -13 16 -20 8 -31z m-1479 11 c11 -12 10
-18 -3 -32 -16 -15 -18 -15 -34 0 -13 14 -14 20 -3 32 7 9 16 16 20 16 4 0 13
-7 20 -16z m707 -111 c-2 -21 -4 -4 -4 37 0 41 2 58 4 38 2 -21 2 -55 0 -75z
m829 66 c3 -6 -2 -19 -12 -30 -16 -18 -18 -18 -36 -3 -12 11 -15 21 -9 28 13
15 49 18 57 5z m-646 -67 c10 -12 85 -64 166 -116 138 -86 150 -92 167 -78 16
14 19 14 34 -1 13 -12 14 -19 5 -30 -7 -8 -9 -17 -5 -21 4 -4 -31 -45 -77 -91
l-85 -85 35 0 c29 0 45 11 107 72 l73 72 31 -18 31 -18 -2 43 c-2 59 -1 73 6
66 4 -3 14 3 24 15 l17 21 42 -23 42 -24 -31 -30 c-30 -30 -30 -30 -60 -13
l-30 18 -1 -53 c-1 -29 -1 -60 0 -68 1 -11 0 -12 -7 -3 -6 10 -17 4 -41 -21
-23 -24 -29 -35 -19 -39 7 -3 -5 -6 -27 -6 -24 -1 -35 -5 -28 -9 9 -6 0 -21
-31 -51 l-44 -44 -36 23 c-20 12 -36 25 -36 29 0 10 31 37 50 44 8 3 -14 6
-50 6 -45 1 -60 -2 -50 -9 13 -8 13 -10 -2 -10 -9 0 -20 5 -23 10 -4 6 -70 10
-166 10 l-159 0 0 -111 c0 -99 2 -110 15 -99 11 10 19 10 27 2 6 -6 16 -8 23
-6 6 3 18 -2 25 -11 11 -13 11 -19 -3 -32 -13 -13 -19 -14 -31 -4 -8 7 -20 10
-25 7 -5 -4 -13 -1 -17 6 -6 9 -10 5 -15 -12 -5 -17 -7 -7 -8 34 -1 52 -3 57
-17 46 -12 -11 -18 -10 -32 3 -15 16 -15 18 0 34 14 13 20 14 32 3 14 -11 16
-4 16 64 l0 76 -76 0 c-68 0 -75 -2 -64 -16 11 -12 10 -18 -3 -32 -16 -15 -18
-15 -34 0 -13 14 -14 20 -3 32 11 14 6 16 -46 17 -41 1 -51 3 -34 8 18 5 21 9
12 15 -11 6 -10 12 4 27 16 18 18 18 36 3 14 -13 15 -20 7 -31 -10 -11 7 -13
95 -13 l107 0 -3 98 c-3 85 -5 97 -20 94 -9 -1 -25 9 -34 23 -16 25 -16 26 22
69 22 24 42 45 46 45 4 1 32 27 62 59 61 64 86 71 116 34z m570 2 c11 -12 10
-18 -3 -32 -16 -15 -18 -15 -34 0 -13 14 -14 20 -3 32 7 9 16 16 20 16 4 0 13
-7 20 -16z m-753 -66 c-3 -8 -6 -5 -6 6 -1 11 2 17 5 13 3 -3 4 -12 1 -19z
m-670 -130 c-2 -18 -4 -6 -4 27 0 33 2 48 4 33 2 -15 2 -42 0 -60z m593 -75
c0 -20 -27 -28 -45 -13 -14 11 -14 15 1 31 13 14 20 16 31 8 7 -6 13 -18 13
-26z m-70 -49 c11 -12 10 -18 -3 -32 -16 -15 -18 -15 -34 0 -13 14 -14 20 -3
32 7 9 16 16 20 16 4 0 13 -7 20 -16z m-237 -111 c-18 -2 -48 -2 -65 0 -18 2
-4 4 32 4 36 0 50 -2 33 -4z m677 -29 c11 -12 10 -18 -3 -32 -16 -15 -18 -15
-34 0 -13 14 -14 20 -3 32 7 9 16 16 20 16 4 0 13 -7 20 -16z m-377 -86 c-15
-17 -17 -17 -35 -1 -17 15 -17 17 -1 35 15 17 17 17 35 1 17 -15 17 -17 1 -35z
m307 16 c11 -12 10 -18 -3 -32 -16 -15 -18 -15 -34 0 -13 14 -14 20 -3 32 7 9
16 16 20 16 4 0 13 -7 20 -16z m-65 -93 c-13 -14 -17 -14 -32 1 -14 14 -14 20
-3 33 12 14 15 14 32 -2 17 -15 17 -18 3 -32z m-158 -243 c-2 -18 -4 -6 -4 27
0 33 2 48 4 33 2 -15 2 -42 0 -60z"/>
<path d="M2240 3454 c-19 -8 -47 -27 -62 -41 -26 -25 -27 -27 -12 -61 8 -20
16 -38 18 -40 2 -2 26 10 52 26 27 16 66 35 86 42 l38 11 -20 40 c-23 44 -42
48 -100 23z"/>
<path d="M2830 610 l0 -90 142 0 c80 0 138 4 133 9 -13 11 -265 171 -271 171
-2 0 -4 -40 -4 -90z"/>
<path d="M3318 503 c7 -3 16 -2 19 1 4 3 -2 6 -13 5 -11 0 -14 -3 -6 -6z"/>
<path d="M2510 3904 c0 -41 2 -45 23 -42 18 2 23 10 25 46 3 39 1 42 -22 42
-24 0 -26 -3 -26 -46z"/>
<path d="M1419 3754 c-11 -14 -10 -18 6 -30 17 -13 21 -13 32 2 9 13 10 21 2
31 -15 17 -24 16 -40 -3z"/>
<path d="M2168 3759 c-10 -5 -14 -17 -11 -29 6 -22 11 -24 32 -11 22 14 2 53
-21 40z"/>
<path d="M2500 3695 c0 -20 5 -25 25 -25 20 0 25 5 25 25 0 20 -5 25 -25 25
-20 0 -25 -5 -25 -25z"/>
<path d="M1542 3688 c-19 -19 -15 -25 44 -59 50 -28 57 -30 71 -16 14 14 12
18 -23 40 -70 43 -80 47 -92 35z"/>
<path d="M3077 3668 c-15 -11 -16 -16 -5 -31 11 -15 16 -16 31 -5 15 11 16 16
5 31 -11 15 -16 16 -31 5z"/>
<path d="M1700 3589 c-7 -11 -10 -22 -8 -23 2 -1 20 -13 40 -25 36 -21 37 -22
47 -2 11 20 10 22 -41 54 -26 16 -28 16 -38 -4z"/>
<path d="M2888 3574 c-29 -15 -32 -22 -22 -48 5 -14 11 -13 46 5 27 14 38 25
34 35 -3 9 -6 18 -6 20 0 8 -26 3 -52 -12z"/>
<path d="M2748 3499 c-60 -30 -66 -37 -47 -56 9 -9 27 -4 71 18 52 26 57 32
48 49 -6 11 -12 20 -13 20 -1 -1 -28 -14 -59 -31z"/>
<path d="M1896 3463 c-4 -9 -1 -20 6 -25 19 -12 26 -10 37 11 8 15 7 20 -5 25
-24 9 -31 7 -38 -11z"/>
<path d="M1815 3020 c-7 -12 3 -50 14 -50 4 0 16 6 26 14 16 12 17 16 6 30
-15 18 -37 21 -46 6z"/>
<path d="M1638 2929 c-40 -20 -43 -26 -29 -47 7 -11 16 -10 50 7 36 19 40 24
31 41 -6 11 -12 20 -13 20 -1 -1 -19 -10 -39 -21z"/>
<path d="M1488 2854 c-45 -23 -60 -46 -39 -59 16 -10 122 48 119 65 -5 23 -29
22 -80 -6z"/>
<path d="M3150 2845 c0 -16 35 -73 51 -83 16 -10 19 -9 19 5 0 27 -37 83 -55
83 -8 0 -15 -2 -15 -5z"/>
<path d="M3015 2790 c-9 -15 13 -40 37 -40 24 0 19 18 -9 37 -15 10 -23 11
-28 3z"/>
<path d="M3124 2738 c-4 -13 -6 -46 -5 -75 3 -70 -11 -96 -50 -88 -25 6 -29 4
-29 -15 0 -12 -4 -29 -9 -39 -8 -14 14 -42 129 -156 126 -126 138 -140 129
-162 -10 -27 -12 -107 -3 -140 5 -19 13 -23 46 -23 26 0 37 4 32 11 -7 12 12
29 33 29 6 0 15 -9 18 -20 5 -15 15 -20 38 -20 29 1 30 2 15 14 -24 18 -23 67
2 99 25 31 28 108 5 127 -14 12 -14 15 1 31 14 16 17 16 35 1 16 -14 17 -18 4
-32 -9 -9 -15 -36 -15 -61 0 -42 1 -44 30 -45 16 -1 36 -7 44 -13 24 -20 30
-69 11 -97 l-16 -25 38 1 c21 0 82 -2 135 -4 57 -3 100 -1 103 4 4 6 2 10 -2
10 -5 0 -14 9 -21 21 -12 18 -9 25 27 65 23 24 41 53 41 66 -1 39 -37 105 -87
159 -51 55 -186 148 -247 170 -35 13 -37 12 -74 -24 -21 -20 -42 -37 -48 -37
-5 0 -75 65 -154 145 -79 80 -145 145 -146 145 -1 0 -6 -10 -10 -22z m535
-350 c15 -9 17 -16 10 -30 -11 -20 -18 -22 -38 -9 -8 5 -11 16 -6 30 7 24 9
25 34 9z m-79 -14 c11 -12 10 -18 -3 -32 -16 -15 -18 -15 -34 0 -13 14 -14 20
-3 32 7 9 16 16 20 16 4 0 13 -7 20 -16z m160 -50 c11 -12 10 -18 -3 -32 -16
-15 -18 -15 -34 0 -13 14 -14 20 -3 32 7 9 16 16 20 16 4 0 13 -7 20 -16z m64
-106 c-3 -5 -14 -8 -25 -8 -28 0 -37 30 -14 47 17 12 21 11 31 -9 7 -13 10
-26 8 -30z m-355 -5 c-6 -7 -18 -13 -26 -13 -20 0 -28 27 -13 45 11 14 15 14
31 -1 14 -13 16 -20 8 -31z m331 -49 c11 -12 10 -18 -3 -32 -16 -15 -18 -15
-34 0 -13 14 -14 20 -3 32 7 9 16 16 20 16 4 0 13 -7 20 -16z m-382 -2 c20
-13 3 -42 -24 -42 -25 0 -28 7 -18 34 7 18 22 20 42 8z m315 -94 c-15 -17 -17
-17 -35 -1 -17 15 -17 17 -1 35 15 17 17 17 35 1 17 -15 17 -17 1 -35z"/>
<path d="M1559 2638 c-5 -18 -6 -38 -1 -34 7 8 12 36 6 36 -2 0 -4 -1 -5 -2z"/>
<path d="M2696 2328 c13 -23 37 -48 46 -48 5 0 -1 14 -14 30 -21 29 -46 43
-32 18z"/>
<path d="M2744 2243 c-17 -3 -22 -14 -27 -55 -4 -29 -17 -67 -31 -89 -18 -27
-22 -39 -12 -42 7 -3 66 -6 132 -6 65 -1 135 -4 154 -7 34 -6 31 -3 -70 100
-57 58 -109 105 -115 105 -5 -1 -20 -4 -31 -6z"/>
<path d="M2698 2033 c12 -2 30 -2 40 0 9 3 -1 5 -23 4 -22 0 -30 -2 -17 -4z"/>
<path d="M948 1973 c7 -3 16 -2 19 1 4 3 -2 6 -13 5 -11 0 -14 -3 -6 -6z"/>
<path d="M680 1875 l-25 -14 31 -1 c44 0 94 11 94 21 0 14 -73 10 -100 -6z"/>
<path d="M818 1693 c7 -3 16 -2 19 1 4 3 -2 6 -13 5 -11 0 -14 -3 -6 -6z"/>
<path d="M3723 1453 l37 -38 26 27 c15 14 23 31 20 37 -4 6 -33 11 -64 11
l-57 0 38 -37z"/>
<path d="M2223 1173 c31 -2 83 -2 115 0 31 2 5 3 -58 3 -63 0 -89 -1 -57 -3z"/>
</g>
</svg>
